<svg xmlns="http://www.w3.org/2000/svg" viewBox="0 0 1639.62 1078.47">
  <defs>
    <style>
      .a{fill:#56ddbd}
    </style>
  </defs>
  <path class="a" d="M1115.79 1075.63H529.11a28.32 28.32 0 01-24.52-14.15L211.25 553.39a28.3 28.3 0 010-28.31L504.59 17a28.33 28.33 0 0124.52-14.16h586.68A28.33 28.33 0 011140.32 17l293.34 508.08a28.34 28.34 0 010 28.31l-293.34 508.09a28.32 28.32 0 01-24.53 14.15zM545.46 1019h554l277-479.76-277-479.77h-554l-277 479.77z"/>
  <path class="a" d="M1315.1 1078.47a31.16 31.16 0 01-26.94-46.73l284.34-492.5-284.34-492.51a31.15 31.15 0 1153.95-31.15l293.34 508.08a31.17 31.17 0 010 31.15l-293.34 508.08a31.15 31.15 0 01-27.01 15.58zM324.52 1078.47a31.14 31.14 0 01-27-15.58L4.17 554.81a31.17 31.17 0 010-31.15L297.51 17.58a31.15 31.15 0 0153.95 31.15L67.12 539.24l284.34 492.5a31.16 31.16 0 01-26.94 46.73zM1001.69 685.67q0 31.17 10.39 45.52 9 12.48 26.69 19.35a6 6 0 013.51 7.56l-16.69 48a6 6 0 01-6.65 4q-30.53-5-53.86-20.78-25.23-17.07-36.61-51.7a179.94 179.94 0 01-70.25 54.67q-42 18.56-93 18.55-78.16 0-123.18-44T597 650.06q0-80.64 62.83-123.69t181.56-43h76.68v-43.58q0-56.39-32.9-79.89t-91.27-23.5q-25.74 0-60.36 6.18a462.78 462.78 0 00-64 16.7 12 12 0 01-15.1-7.47l-15.92-46a6 6 0 013.65-7.61Q687 282 726.62 275.05a462.31 462.31 0 0180.15-7.42q97.46 0 146.19 45.27t48.73 122.94zm-215.2 61.85q38.58 0 73.71-19.54a163.81 163.81 0 0057.88-54.18V539.73h-75.2q-86.07 0-121.45 29.69t-35.37 79.65q0 48.48 25 73.47t75.43 24.98z"/>
</svg>